<svg preserveAspectRatio="none" width="100%" height="100%" overflow="visible" style="display: block;" viewBox="0 0 107 32" fill="none" xmlns="http://www.w3.org/2000/svg">
<g id="Icon" clip-path="url(#clip0_0_5)">
<path id="Vector" d="M48.7677 15.756C48.6376 16.0063 48.4103 16.3031 48.086 16.6465C47.2697 17.4439 46.3331 17.8425 45.2755 17.8425C44.8049 17.8425 44.3537 17.759 43.9219 17.5934C43.8876 17.5802 43.8533 17.5664 43.8195 17.5521C43.6965 17.501 43.5751 17.4434 43.4552 17.3786C43.2601 17.2729 43.0691 17.1494 42.8826 17.0075C42.8554 16.9901 42.826 16.9683 42.7952 16.9444C42.769 16.9239 42.7411 16.901 42.712 16.8757C42.6757 16.8442 42.6378 16.8102 42.5971 16.7712C42.5693 16.7446 42.5405 16.7162 42.5107 16.6861C42.4211 16.5957 42.3225 16.4897 42.2148 16.3681C41.556 15.5425 41.2268 14.6242 41.2268 13.6133C41.2268 12.8101 41.4252 12.0753 41.8209 11.4088C41.8867 11.2978 41.9574 11.1886 42.0342 11.0814C42.1036 10.9512 42.2674 10.7553 42.5237 10.495C42.5413 10.4772 42.5581 10.4598 42.5766 10.4413C42.8597 10.1872 43.153 9.9782 43.4563 9.81222C44.0272 9.49968 44.6334 9.34249 45.2755 9.34249C45.6476 9.34249 46.0118 9.39764 46.3689 9.50426C46.5039 9.54475 46.6378 9.59238 46.7706 9.64789C46.8994 9.70193 47.0273 9.76111 47.1539 9.82926C47.2926 9.90364 47.4411 10.0057 47.5991 10.1358C47.6245 10.1464 47.656 10.1654 47.6921 10.1911C47.8138 10.2776 47.9955 10.4485 48.2386 10.7061C48.7884 11.3462 49.1317 12.046 49.2691 12.8061C49.2807 12.8695 49.2907 12.933 49.2992 12.9973C49.325 13.1899 49.3378 13.3861 49.3378 13.5862V13.6272C49.3378 14.1087 49.2541 14.5796 49.0901 15.0408C49.0044 15.2818 48.8981 15.5203 48.7677 15.756ZM51.5362 11.0118C51.2851 10.3113 50.871 9.62701 50.2971 8.95832C50.2556 8.91014 50.2157 8.86196 50.1727 8.81396C50.1521 8.79271 50.1329 8.77347 50.1129 8.75314C49.8174 8.45214 49.5862 8.24018 49.4215 8.11835C48.1697 7.14446 46.7873 6.65751 45.2757 6.65751C44.2709 6.65751 43.3248 6.8724 42.4374 7.30146C42.428 7.30604 42.4185 7.31007 42.4092 7.31465C42.2483 7.39343 42.0895 7.47989 41.9325 7.57259C41.7982 7.6521 41.6652 7.73601 41.5337 7.82578C41.3609 7.93295 41.0857 8.15682 40.7093 8.49702C40.6609 8.54063 40.6112 8.58569 40.5596 8.63333C40.5202 8.67619 40.4819 8.71815 40.4451 8.759C40.1864 9.04608 39.9882 9.28698 39.8504 9.48191C39.6932 9.71018 39.5533 9.9357 39.4292 10.1583C39.392 10.2253 39.356 10.292 39.3217 10.3585C39.1086 10.7883 38.9417 11.2172 38.8161 11.6453C38.6352 12.2614 38.5424 12.8759 38.5424 13.4887V13.6973C38.5424 14.4831 38.6924 15.2724 38.9875 16.0646C39.0223 16.1582 39.0592 16.2517 39.098 16.3453C39.1301 16.4225 39.1614 16.4998 39.1964 16.5771C39.2612 16.7163 39.3331 16.8577 39.4118 17.0015C39.4906 17.1452 39.5763 17.2914 39.669 17.4398C39.6989 17.4862 39.7295 17.5313 39.7603 17.5765C39.8621 17.7265 39.9689 17.8704 40.0805 18.0074C40.1237 18.0602 40.1672 18.1122 40.2117 18.1631C40.3102 18.2965 40.4487 18.448 40.627 18.6176C40.734 18.7192 40.8553 18.8275 40.991 18.9422C41.1671 19.0909 41.3669 19.2485 41.5894 19.4152C42.0107 19.6851 42.4388 19.9051 42.8736 20.0768C43.6351 20.3774 44.4172 20.5282 45.2202 20.5282H45.3451C46.3916 20.5282 47.4025 20.2728 48.3777 19.762C48.5178 19.6887 48.657 19.6104 48.7955 19.5266C48.8511 19.4918 48.9077 19.455 48.965 19.4161C49.1372 19.2996 49.3173 19.1648 49.5051 19.0117C49.565 18.9667 49.6304 18.9118 49.7006 18.8486C49.8905 18.6775 50.1173 18.44 50.3817 18.1352C50.507 17.9787 50.6224 17.8268 50.7281 17.6794C50.7985 17.5812 50.8644 17.4849 50.9262 17.3908C51.0189 17.2495 51.1017 17.1129 51.1748 16.9809C51.7401 15.9047 52.0234 14.7825 52.0234 13.6136C52.0232 13.5011 52.0206 13.3892 52.0155 13.2778C51.9796 12.4976 51.82 11.7424 51.5362 11.0118Z" fill="var(--fill-0, #144C8B)"/>
<path id="Vector_2" d="M72.8833 16.364C72.8696 16.3811 72.8562 16.3984 72.8421 16.4154C72.7514 16.5252 72.6548 16.6328 72.5521 16.7382C72.5502 16.74 72.5488 16.7418 72.5469 16.7436C72.5369 16.7523 72.5266 16.7604 72.5165 16.769C72.4368 16.8372 72.357 16.9018 72.2769 16.9633C72.2476 16.9858 72.2183 17.0078 72.1888 17.0294C71.4661 17.5617 70.7232 17.8287 69.9592 17.8287H69.6531C69.102 17.8287 68.5231 17.666 67.9158 17.3406C67.9023 17.3334 67.8883 17.3249 67.8748 17.3175C67.8002 17.2766 67.7253 17.2345 67.6498 17.1889C67.5804 17.1374 67.5137 17.0848 67.4481 17.0317C66.694 16.4207 66.1917 15.7043 65.9424 14.882C65.8191 14.4757 65.7575 14.0437 65.7575 13.5858C65.7575 13.042 65.8599 12.5124 66.0631 11.9967C66.0937 11.9188 66.1269 11.8413 66.162 11.764C66.1782 11.7289 66.1948 11.6935 66.212 11.6585C66.3366 11.4024 66.4861 11.1496 66.6622 10.9006C66.7745 10.772 66.8886 10.6513 67.0044 10.5388C67.1202 10.4261 67.2376 10.3215 67.3567 10.225C67.6353 9.99945 67.9233 9.819 68.2201 9.68123C68.2665 9.6598 68.313 9.63946 68.3599 9.62004C68.7822 9.44545 69.2224 9.3566 69.6809 9.3566H69.9034C69.9777 9.3566 70.0519 9.36026 70.1265 9.36539C70.1668 9.36814 70.2073 9.37291 70.2476 9.37712C70.3379 9.38683 70.4284 9.4002 70.5191 9.41724C70.8761 9.48466 71.236 9.61033 71.5981 9.79427C71.7192 9.85582 71.8407 9.92141 71.9623 9.99615C72.4354 10.3369 72.8195 10.7183 73.1152 11.1401C73.2138 11.2808 73.3025 11.4259 73.3814 11.5753C73.6967 12.1737 73.8544 12.8438 73.8544 13.5858V13.5995C73.8544 14.0106 73.803 14.4027 73.7015 14.777C73.5468 15.3487 73.2742 15.8778 72.8833 16.364ZM76.5537 6.89384L76.5259 6.86617H73.8968L73.8816 6.87625L73.8548 6.89384V8.42429C72.7508 7.2465 71.4248 6.65751 69.8759 6.65751C69.7727 6.65751 69.6701 6.65952 69.5683 6.66374C69.3646 6.67235 69.1636 6.68957 68.9652 6.71503C68.6678 6.75369 68.3764 6.81121 68.0909 6.88834C67.863 6.94971 67.6394 7.02501 67.4192 7.11111C67.2717 7.16864 67.1255 7.23019 66.9815 7.29889C66.4429 7.55537 65.9285 7.8888 65.438 8.29917C65.0438 8.67015 64.6988 9.05853 64.4033 9.46432C64.2555 9.66713 64.1201 9.87432 63.9968 10.0859C63.381 11.1439 63.0731 12.3105 63.0731 13.5858V13.5995C63.0731 14.3729 63.1907 15.11 63.4226 15.8122C63.6859 16.6089 64.097 17.3603 64.6591 18.0652C64.8364 18.2705 65.0187 18.4628 65.2055 18.6425C65.425 18.8534 65.652 19.0442 65.8847 19.2198C65.9977 19.3049 66.1122 19.3856 66.228 19.4625C66.3526 19.5449 66.4788 19.6229 66.6068 19.6959C66.6395 19.7144 66.6717 19.7345 66.7045 19.7525C66.8895 19.8532 67.0786 19.943 67.2708 20.0242C67.3052 20.0387 67.3395 20.0539 67.3741 20.0678C68.1371 20.3739 68.9571 20.5278 69.8343 20.5278H69.848C70.8683 20.5278 71.7725 20.305 72.561 19.8595C72.7186 19.7703 72.8718 19.6725 73.0201 19.5655C73.3169 19.3517 73.5952 19.1021 73.8548 18.8171V20.1663L73.8968 20.1942H76.5259L76.5537 20.1663V6.89384Z" fill="var(--fill-0, #144C8B)"/>
<path id="Vector_3" d="M80.8274 12.9772C80.8375 12.8942 80.85 12.8121 80.8644 12.7308C80.8772 12.6595 80.8912 12.5886 80.9075 12.5186C80.9328 12.4102 80.9623 12.3034 80.9958 12.1979C81.1273 11.7855 81.3235 11.3956 81.5833 11.0278C81.5895 11.0191 81.5952 11.0104 81.6014 11.0017C81.6755 10.8623 81.8561 10.6491 82.1437 10.3616C82.1946 10.3158 82.2461 10.2715 82.2978 10.2284C82.4011 10.1425 82.5057 10.0625 82.6116 9.98809C83.3001 9.50462 84.0439 9.26262 84.8426 9.26262C85.4917 9.26262 86.1179 9.42493 86.721 9.74956C86.7999 9.79188 86.8826 9.8441 86.9677 9.90455C87.0322 9.95017 87.0982 9.99982 87.1663 10.0559C87.2079 10.0733 87.264 10.1108 87.3343 10.1687C87.4518 10.2651 87.6088 10.4173 87.8059 10.6262C88.0012 10.8537 88.1697 11.0889 88.313 11.3317C88.4385 11.5442 88.5447 11.7622 88.6303 11.9863C88.6532 12.0462 88.6746 12.1066 88.6946 12.1674C88.8349 12.5932 88.9049 13.0395 88.9049 13.5063V13.5475C88.9049 14.2804 88.7148 14.9895 88.3348 15.6762C88.2503 15.8386 88.1243 16.021 87.9579 16.2226C87.8682 16.3317 87.7669 16.4461 87.6531 16.5666C87.2449 16.9654 86.8067 17.2644 86.3383 17.4637C86.2798 17.4886 86.2208 17.512 86.1613 17.5337C85.7449 17.6863 85.3054 17.7627 84.8426 17.7627C84.284 17.7627 83.7528 17.6452 83.2486 17.4117C83.1843 17.382 83.1204 17.3503 83.0568 17.3166C82.8498 17.207 82.6471 17.0778 82.4497 16.9277C82.3509 16.864 82.2271 16.7569 82.0778 16.6062C81.9884 16.5159 81.8896 16.4099 81.7819 16.2883C81.1231 15.4627 80.7939 14.5444 80.7939 13.5334C80.7939 13.3441 80.8054 13.1589 80.8274 12.9772ZM87.6857 28.9153C87.0123 29.1322 86.2725 29.2421 85.4723 29.2421C83.951 29.2421 82.6836 28.9094 81.7136 28.2596C81.5247 28.1167 81.3592 27.97 81.2171 27.8199C80.7902 27.3685 80.5744 26.8856 80.5744 26.3787V26.3444C80.5744 26.0084 80.7041 25.642 80.9591 25.2514C80.9846 25.2124 81.0114 25.1732 81.0392 25.1336C81.1792 24.936 81.3503 24.7325 81.5522 24.5238C81.7064 24.3853 81.8513 24.2603 81.9865 24.1495C82.2115 23.9647 82.4094 23.8187 82.5775 23.7129C82.9066 23.762 83.2607 23.7988 83.6377 23.8236C84.0146 23.8481 84.4143 23.8606 84.8346 23.8606H86.4727C87.0295 23.8606 87.617 23.9302 88.2168 24.0665C88.3026 24.086 88.3885 24.1068 88.4748 24.129C88.6556 24.1843 88.8241 24.248 88.9817 24.3184C89.1746 24.4043 89.3505 24.5005 89.5062 24.6073C89.6003 24.6718 89.6875 24.7401 89.7674 24.812C89.903 24.9442 90.0136 25.0796 90.1043 25.2184C90.2927 25.5065 90.3874 25.81 90.3874 26.1374V26.1894C90.3874 26.6832 90.1527 27.1958 89.6936 27.7087C89.4404 27.9731 89.2251 28.161 89.0515 28.2699C88.6336 28.5421 88.1772 28.7568 87.6857 28.9153ZM92.0761 23.2348C91.9473 23.09 91.7793 22.9178 91.567 22.7132C91.2702 22.4611 90.9428 22.2393 90.5874 22.046C90.5665 22.0346 90.5464 22.0221 90.5251 22.011C89.3851 21.4079 87.9519 21.1032 86.2458 21.1032L85.6425 21.1119L85.0412 21.1205C83.4292 21.1205 82.3949 20.9684 81.9667 20.6687L81.9459 20.6573L81.9317 20.6498C81.9087 20.6405 81.8555 20.6194 81.8189 20.5322C81.7971 20.48 81.781 20.4038 81.781 20.2922C81.781 20.1544 81.809 20.0223 81.8634 19.8936C81.8814 19.8516 81.9017 19.8099 81.9252 19.7684C82.2712 19.9381 82.6217 20.0762 82.9765 20.1825C83.5679 20.3596 84.1716 20.4485 84.7873 20.4485H84.9122C85.8097 20.4485 86.681 20.2605 87.5261 19.8849C87.5967 19.8536 87.6668 19.821 87.737 19.7871C87.9471 19.6854 88.1556 19.5718 88.3626 19.4468C88.5295 19.3425 88.7043 19.2199 88.887 19.0788C88.9478 19.032 89.0095 18.9829 89.0722 18.9318C89.1533 18.871 89.2442 18.7929 89.344 18.6986C89.5175 18.5345 89.7191 18.3204 89.949 18.0555C90.2472 17.6827 90.4892 17.3362 90.6765 17.0156C90.6988 16.9771 90.721 16.9388 90.7419 16.901C91.3072 15.8248 91.5904 14.7026 91.5904 13.5338C91.5897 12.6439 91.4307 11.786 91.1134 10.9594C91.1099 10.9503 91.107 10.9411 91.1033 10.9319C90.9897 10.6146 90.841 10.301 90.6611 9.99011L90.6836 9.9934L90.69 9.99432C90.6655 9.95145 90.6407 9.90987 90.6156 9.87011C90.6253 9.83457 90.6484 9.78382 90.7008 9.71787C90.7547 9.66108 90.8162 9.61473 90.8849 9.57699C90.9987 9.51434 91.1328 9.47678 91.2911 9.46542C91.3274 9.46285 91.3647 9.46157 91.4036 9.46157H91.8343L91.8931 9.45003L91.9226 9.44435L92.0232 9.34378V6.89237L92.0059 6.80407L91.9076 6.70496L91.9061 6.70349H91.3006C91.0123 6.70349 90.7071 6.74617 90.4061 6.82752C90.0644 6.89365 89.6963 7.05065 89.3098 7.29303C89.2693 7.31831 89.2288 7.34377 89.188 7.37089C89.1315 7.40844 89.0676 7.45901 88.9969 7.5213C88.9073 7.60025 88.8062 7.69882 88.6915 7.81936C88.3984 7.61271 88.0983 7.43153 87.7914 7.27636C87.4844 7.12119 87.1706 6.99185 86.8498 6.88834C86.7697 6.86251 86.6891 6.83814 86.6079 6.81543C86.0408 6.65696 85.4523 6.57763 84.843 6.57763C84.0812 6.57763 83.3532 6.70092 82.6591 6.94733C82.1192 7.13896 81.5998 7.40533 81.1009 7.74608C81.0766 7.76111 81.0502 7.77851 81.0216 7.79829C80.8227 7.93643 80.5244 8.18796 80.1267 8.55363C79.975 8.71851 79.8422 8.8691 79.7269 9.00632C79.6533 9.09407 79.5873 9.17596 79.5285 9.25236C79.4884 9.30475 79.4507 9.35495 79.4175 9.40203C79.3664 9.47623 79.3171 9.55024 79.2695 9.62389C79.1488 9.81075 79.0408 9.9956 78.9426 10.1786C78.9247 10.212 78.9058 10.2455 78.8888 10.2786C78.8045 10.4488 78.7296 10.6187 78.6589 10.7887C78.2943 11.6655 78.1094 12.539 78.1094 13.4088V13.6175C78.1094 14.0053 78.1474 14.3939 78.2192 14.7834C78.3243 15.353 78.5044 15.9244 78.7635 16.4973C78.7959 16.5669 78.8302 16.6371 78.8661 16.7078C78.9738 16.9199 79.0971 17.1373 79.2361 17.36C79.3939 17.6055 79.5648 17.8337 79.7474 18.0458C79.2684 18.7249 79.0242 19.4682 79.0242 20.2574V20.3092C79.0242 20.907 79.1575 21.4366 79.416 21.8952C79.4477 21.9515 79.4813 22.0068 79.5168 22.0608C79.602 22.1903 79.6956 22.3149 79.8028 22.4318C79.5685 22.6051 79.3298 22.8302 79.0874 23.1069C79.0489 23.1508 79.0103 23.1958 78.9718 23.2423C78.8925 23.3493 78.8184 23.4561 78.7474 23.5627C78.1302 24.4878 77.8169 25.3936 77.8169 26.2583V26.4481C77.8169 26.955 77.9136 27.4614 78.1043 27.9637C78.2674 28.3932 78.4988 28.8198 78.7998 29.2412C78.8712 29.3359 78.9646 29.4473 79.0808 29.5753C79.1389 29.6393 79.2026 29.7076 79.2719 29.7798C79.3413 29.8522 79.4164 29.9288 79.4972 30.0093C79.6482 30.1401 79.7947 30.2585 79.9382 30.3686C80.1285 30.5144 80.3124 30.6437 80.4872 30.7515C80.8388 30.9603 81.2341 31.1546 81.6661 31.334C81.7661 31.3755 81.8662 31.4171 81.9702 31.457C83.0753 31.817 84.1549 32 85.1788 32H85.7652C86.3718 32 87.0861 31.9117 87.8953 31.7356C88.0986 31.6821 88.3088 31.6184 88.5233 31.5472C88.5834 31.5272 88.6442 31.5059 88.705 31.4847C88.8994 31.4165 89.0965 31.3434 89.2979 31.2619C89.6408 31.1163 89.9625 30.9499 90.2551 30.7703C90.2934 30.7469 90.333 30.7238 90.3703 30.7C90.6318 30.5452 90.9773 30.2777 91.4021 29.8994C91.807 29.5065 92.0746 29.203 92.2181 28.9758C92.3333 28.805 92.4379 28.6331 92.5317 28.4602C92.9384 27.7111 93.144 26.944 93.144 26.1724C93.1447 25.2219 92.8501 24.3129 92.2666 23.4667C92.2164 23.3985 92.1534 23.3216 92.0761 23.2348Z" fill="var(--fill-0, #1C6AC3)"/>
<path id="Vector_4" d="M37.5666 8.8484H30.847V2.68554H39.1107L39.1248 2.67143V0.0141068L39.1108 0H28.176L28.167 0.00916003L28.1622 0.0141068V20.3534L28.1754 20.367L30.8333 20.3675L30.847 20.3534V11.5195H37.5666V8.8484Z" fill="var(--fill-0, #144C8B)"/>
<path id="Vector_5" d="M60.57 6.83704C60.3282 6.80113 60.0884 6.78263 59.8508 6.78263H59.5027C59.1665 6.78263 58.8331 6.82477 58.5022 6.90904C58.37 6.94257 58.2381 6.98305 58.1067 7.03032C57.6183 7.20564 57.1359 7.47531 56.6596 7.83695C56.559 7.91316 56.4588 7.9923 56.359 8.07676V7.07502L56.3309 7.04699H53.7295L53.6879 7.07502V20.1385L53.7295 20.1801H56.3309L56.359 20.1385V14.017C56.359 13.4328 56.3885 12.9134 56.4464 12.4554C56.4958 12.0638 56.5658 11.7166 56.6578 11.4172C56.7774 11.0277 56.9327 10.7163 57.1242 10.4833C57.3779 10.2363 57.6469 10.0355 57.9308 9.88129C58.404 9.62407 58.919 9.49528 59.4756 9.49528H59.698C60.3842 9.49528 61.1724 9.78785 62.0629 10.3721C62.071 10.3538 62.088 10.2931 62.1129 10.1949C62.2021 9.843 62.3985 8.98086 62.7032 7.60337V7.58981C61.9741 7.19098 61.2632 6.94018 60.57 6.83704Z" fill="var(--fill-0, #144C8B)"/>
<path id="Vector_6" d="M101.809 9.85124C102.009 9.96428 102.204 10.0962 102.396 10.247C103.009 10.8499 103.401 11.3874 103.573 11.8608V11.8745H96.2545L96.4958 11.3599C97.3809 10.015 98.5127 9.34249 99.8913 9.34249C100.432 9.34249 100.948 9.45095 101.438 9.66658C101.564 9.72135 101.687 9.78236 101.809 9.85124ZM106.833 14.2981C106.842 14.2333 106.847 14.1405 106.847 14.0177V13.6001C106.847 13.0664 106.785 12.5423 106.663 12.0271C106.643 11.9465 106.623 11.8663 106.601 11.786C106.585 11.7283 106.568 11.6704 106.551 11.6129C106.367 11.01 106.099 10.4201 105.745 9.84336C105.688 9.7437 105.618 9.63946 105.539 9.53119C105.272 9.16552 104.884 8.75057 104.372 8.28524C103.523 7.60704 102.653 7.14061 101.761 6.88633C101.404 6.78465 101.044 6.71668 100.68 6.68279C100.498 6.66594 100.315 6.65751 100.132 6.65751H99.6945C99.4307 6.65751 99.1673 6.67638 98.904 6.71283C98.2489 6.80333 97.595 7.00596 96.9423 7.32161C96.8591 7.36191 96.7759 7.40405 96.6928 7.44802C96.3603 7.62371 96.0279 7.82871 95.696 8.06284C95.3616 8.34185 95.0584 8.63259 94.786 8.93469C94.6398 9.09682 94.505 9.26299 94.3767 9.43171C93.4571 10.6418 92.9947 12.0211 92.9947 13.572V13.6277C92.9947 15.2047 93.508 16.6557 94.5339 17.9825C96.0224 19.6794 97.8031 20.5282 99.8759 20.5282H99.9361C101.067 20.5282 102.115 20.2745 103.078 19.7666C103.268 19.6666 103.454 19.5548 103.638 19.4348C103.678 19.4081 103.719 19.3814 103.76 19.3537C103.935 19.2339 104.107 19.1054 104.276 18.9675C104.303 18.9453 104.33 18.9228 104.357 18.9002C104.529 18.756 104.698 18.6025 104.864 18.4393C104.873 18.4301 104.882 18.4217 104.892 18.4125C104.899 18.4052 104.906 18.397 104.914 18.3895C105.001 18.3025 105.087 18.2135 105.172 18.1211C105.503 17.6854 105.752 17.3246 105.925 17.035C106.009 16.8933 106.076 16.7672 106.123 16.6605C106.115 16.6533 105.974 16.5913 105.705 16.4763C105.654 16.4548 105.599 16.4313 105.54 16.406C105.43 16.3595 105.305 16.3065 105.165 16.2473C104.746 16.0704 104.191 15.8379 103.497 15.5476C103.491 15.5495 103.481 15.5589 103.469 15.5727C103.465 15.5784 103.46 15.5847 103.454 15.5925C103.403 15.6593 103.318 15.8011 103.195 16.0206C102.863 16.4763 102.501 16.8465 102.11 17.1314C101.979 17.2262 101.846 17.3117 101.709 17.3875C101.16 17.6913 100.559 17.8431 99.9061 17.8431C99.3878 17.8431 98.8974 17.7423 98.4348 17.5407C97.9721 17.339 97.537 17.0364 97.1295 16.6331C96.596 16.1415 96.2141 15.3997 95.9827 14.4073H106.787C106.8 14.4073 106.812 14.3907 106.821 14.3597C106.824 14.3504 106.826 14.3392 106.828 14.3269C106.83 14.3179 106.832 14.3085 106.833 14.2981Z" fill="var(--fill-0, #144C8B)"/>
<path id="Vector_7" d="M22.1322 5.69937C22.1322 5.69937 21.1685 4.36915 20.204 3.0818C18.9881 3.38573 17.6767 4.0731 16.5568 4.90336C15.5113 5.67867 14.5608 6.59595 13.5544 7.5671C12.8048 8.29056 12.0367 9.02904 11.2195 9.71238C13.1404 10.4505 14.8732 12.2378 16.0768 14.0865C16.3317 14.478 16.5658 14.8825 16.7922 15.2909C19.0645 12.2649 21.5186 9.00192 22.1322 8.26637C23.235 6.94422 22.1322 5.69937 22.1322 5.69937Z" fill="var(--fill-0, #144C8B)"/>
<path id="Vector_8" d="M11.5174 6.6194C11.4966 6.57946 11.4765 6.53898 11.4605 6.49556C10.796 4.68993 7.81658 4.07346 5.15602 4.26436C3.85788 4.35724 2.56331 4.62105 1.19252 4.90043C1.1712 4.90464 1.14965 4.90904 1.12833 4.91344C0.844367 5.28735 0.597118 5.63451 0.418212 5.92269C-0.295625 7.073 0.65487 8.26637 0.65487 8.26637C0.65487 8.26637 1.50482 9.43025 2.68539 11.0481C4.7907 10.9558 6.93392 10.2464 8.80786 8.93176C9.758 8.26527 10.6282 7.46963 11.5174 6.6194Z" fill="var(--fill-0, #144C8B)"/>
<path id="Vector_9" d="M5.00675 2.17496C8.08395 1.9542 11.6905 2.63351 13.1091 5.09865C13.8089 4.44188 14.5329 3.79646 15.309 3.22085C16.3633 2.43932 17.5858 1.74425 18.8364 1.30384C18.8322 1.29853 18.8278 1.29303 18.8236 1.28772C17.9012 0.148942 16.0953 0.300999 16.0953 0.300999C16.0953 0.300999 7.54671 0.360539 6.19189 0.370066C4.83699 0.379409 4.42444 1.00339 4.42444 1.00339C4.42444 1.00339 3.891 1.59201 3.20013 2.39132C3.79861 2.29605 4.40154 2.21838 5.00675 2.17496Z" fill="var(--fill-0, #144C8B)"/>
<path id="Vector_10" d="M14.3213 15.2292C12.8668 12.9948 10.5758 10.9913 8.73502 11.5523C8.64062 11.581 8.54587 11.5911 8.45191 11.5931C7.06596 12.3179 5.5942 12.785 4.1117 13.0034C6.62893 16.455 9.62318 20.5663 9.76824 20.7916C9.90298 21.001 11.4795 22.2715 12.7286 20.6755C13.137 20.1537 14.167 18.7861 15.4051 17.138C15.0665 16.4751 14.7157 15.8353 14.3213 15.2292Z" fill="var(--fill-0, #144C8B)"/>
</g>
<defs>
<clipPath id="clip0_0_5">
<rect width="107" height="32" fill="white"/>
</clipPath>
</defs>
</svg>
